<svg xmlns="http://www.w3.org/2000/svg" width="93.297" height="143.529" viewBox="0 0 93.297 143.529"><defs><style>.a{fill:#cf3400;}.a,.b,.c,.d,.e,.f,.g{fill-rule:evenodd;}.b{fill:#d43400;}.c{fill:red;}.d{fill:#f90;}.e,.h{fill:#ff0;}.g{fill:#fff;}</style></defs><g transform="translate(-0.006 -0.001)"><path class="a" d="M11.05,104.278A3.987,3.987,0,0,1,8.238,105.6a7.292,7.292,0,0,1-5.229-2.626c-1.371-1.534-2-2.812-1.837-4.416s.416-1.789,0-2.556A10.509,10.509,0,0,1,.011,90.822c-.094-3.091,2.324-6.577,2.812-7.042a3.512,3.512,0,0,0,1.7-3.137A6.528,6.528,0,0,0,3.172,76c-.767-.976-1.766-2.952-2.254-3.6A4.351,4.351,0,0,1,.009,69.86a6.275,6.275,0,0,1,1.327-2.928c.651-.813,1-1.58,1.766-1.929s1.7-.883,1.65-2.091S4.01,60.89,3.684,59.031s.093-4.857,1.185-5.88,2.208-2.6,3.067-3.509,1.882-1.65,2.975-2.882,1.209-3.625,2.115-5.438A14.281,14.281,0,0,1,17.744,36.3c1.441-.743,2.6-.464,4.276-1.952s1.226-1.935,1.784-2,.912,1.6.825,2.527a10.3,10.3,0,0,1-1.586,4.1A8.648,8.648,0,0,0,21.4,41.741a1.749,1.749,0,0,0,.261,1.15s1.011-.569,1.766-.965a5.359,5.359,0,0,1,2.2-.442,2.41,2.41,0,0,1,2,.883,2.142,2.142,0,0,1,.477,2.347,17.472,17.472,0,0,0-1.174,3.23s1.034-.244,1.859-.4a22.753,22.753,0,0,0,2.986-.464c.337-.209.314-.651,0-1.034s-1.51-1.185-1.987-1.766a1.962,1.962,0,0,1-.4-2.324c.523-.941,1.185-1.429,1.522-2.115a3.256,3.256,0,0,0,.233-2.3,17.212,17.212,0,0,0-1.231-2.022c-.407-.6-.4-.871-.918-1.092a7.1,7.1,0,0,1-2.126-1.476,17.454,17.454,0,0,0-2-1.882,20.607,20.607,0,0,0-2.556-1.534A7.2,7.2,0,0,1,19.927,26.9a12.825,12.825,0,0,1-.825-3.916,8.706,8.706,0,0,1,.209-3.172c.174-.407.848-1.522,1.174-2.231a5.843,5.843,0,0,0,.674-2.057,2.08,2.08,0,0,1,.255-1.592c.418-.569.825-.952,1.081-1.29s.837-.418.464.7a3.767,3.767,0,0,0,0,2.812,11.815,11.815,0,0,0,2.347,3.219c.813.662,1.743.662,2.44,1.127a7.416,7.416,0,0,0,2.719.976,8.555,8.555,0,0,0,3.544-.186c1.185-.4,1.453-.581,1.29-1.057a1.892,1.892,0,0,0-.952-1.255,3.34,3.34,0,0,1-1.429-1.569,1.747,1.747,0,0,0-.442-.883,5.3,5.3,0,0,1-.674-2.289,10.434,10.434,0,0,1,.174-3.951,18.7,18.7,0,0,1,2.545-5.6,36.918,36.918,0,0,0,2.847-2.952c.86-1.2,1.557-1.824,2.057-1.72a.812.812,0,0,1,.662,1.069,17.324,17.324,0,0,1-1.069,3.2A16.029,16.029,0,0,0,38,7.519a3.239,3.239,0,0,0-.209,1.743,9.136,9.136,0,0,0,3.433,4.579,48.924,48.924,0,0,0,4.967,2.893,7.9,7.9,0,0,1,3.224,2.579,9.2,9.2,0,0,1,2.248,5.229A12.484,12.484,0,0,1,50.6,29.475a16.576,16.576,0,0,0-1.569,5.037,11.469,11.469,0,0,0-.157,3.1,10.97,10.97,0,0,0,4.409-.558s-.767-2.335.279-3.277a14.565,14.565,0,0,1,2.388-1.464A9.083,9.083,0,0,1,58.6,31.252a4.107,4.107,0,0,0,2.022-1.115,3.337,3.337,0,0,0,.349-2.318c-.122-.8-.871-.889-1.569-1.8a9.793,9.793,0,0,1-2.231-3.817,4.69,4.69,0,0,1,2.161-4.88,49.151,49.151,0,0,0,5.333-4.218,7.57,7.57,0,0,0,2.179-3.189c.279-.766,1.866-3.085,2.179-3.7s.871-.906.959-1.534.3-1.743.575-1.743.784,1.063.959,1.586.418,1.011,0,3.033S70,11.47,68.778,13.91s-.854,5.281.017,6.153a17.305,17.305,0,0,1,2.719,2.98c.732,1.185,2.649,3.538,3.259,4.322a6.541,6.541,0,0,1,1.133,3.9,5.976,5.976,0,0,1-1.534,4.113c-.819.767-2.945,2.266-3.486,2.876s-1.865,3.015-1.534,4.636,1.028,2.6,1.272,2.6.244-1.081,1.1-2.179A4.455,4.455,0,0,1,74.79,41.64a2.727,2.727,0,0,0,2.022-1.011c.366-.506.784-.7.976.349a3.771,3.771,0,0,1-.139,2.7,3.858,3.858,0,0,0-.244,2.736c.227.593.732.837.993.558s.453-2.213,1.551-3.015a6,6,0,0,1,2.231-.976c.575-.227.959-.575,1.325-.366s.07.593.575.924,1.708,1.028,1.516,2.335-.959,2.806-1.15,4.444a3.707,3.707,0,0,0,.924,3.172c.715,1.063,1.168,2.2,1.551,2.6a6.076,6.076,0,0,0,1.272,1.15,4.732,4.732,0,0,1,1.569,2.248,5.818,5.818,0,0,1-.1,3.294,11.171,11.171,0,0,1-1.516,2.37,3.379,3.379,0,0,1-.906.959,10.367,10.367,0,0,0-1.6,1.586c-.523.593-1.1,1.307-1.1,1.307s.819-.209,1.691-.471a10.659,10.659,0,0,1,4.741-.1.425.425,0,0,1,.087-.488c.227-.209.192-.418.261-.8s.18-.8.18-.8a5.726,5.726,0,0,1,1.04,1.917,11.369,11.369,0,0,1,.767,2.388,3.667,3.667,0,0,1-1.447,2.893,14.81,14.81,0,0,0-4.113,5.089,14.108,14.108,0,0,0-.627,5.246c.017,1.447.209,4.514-.61,6.728s-3.085,5.3-6.466,5.176-16.93.3-16.93.3-21.66.186-21.845.186-5.072.279-6.185.558-17.521,8.09-17.985,8.276S11.05,104.278,11.05,104.278Z" transform="translate(0 0)"/><path class="b" d="M931.48,817.4a1.294,1.294,0,0,0-.061.6c-.009.218-.13.305-.23.471a1.177,1.177,0,0,0-.206.523c0,.157-10.24,6.379-10.24,6.379s-3.137,6.516-3.486,8.1a52.193,52.193,0,0,1-2.022,5.561s-1.882,1.116-.906,4.322c.194.636.322,1.185.431,1.664,2.13-.033,3.985-.043,4.972-.007,3.381.122,5.647-2.963,6.466-5.176s.627-5.281.61-6.728a14.125,14.125,0,0,1,.627-5.246,14.818,14.818,0,0,1,4.113-5.089A3.668,3.668,0,0,0,933,819.885a11.372,11.372,0,0,0-.767-2.388,5.734,5.734,0,0,0-1.04-1.917s.186.654.282,1.089S931.585,817.183,931.48,817.4Z" transform="translate(-839.695 -749.24)"/><path class="c" d="M881.644,523.559c.058-.039.3-.062.508-.709-.037-.107-.073-.219-.107-.337A5.73,5.73,0,0,0,881,520.6s-.11.418-.18.8-.035.593-.261.8a.423.423,0,0,0-.087.488,10.639,10.639,0,0,0-4.741.1c-.871.261-1.691.471-1.691.471s.575-.715,1.1-1.307a10.429,10.429,0,0,1,1.6-1.586,3.364,3.364,0,0,0,.906-.959,11.189,11.189,0,0,0,1.516-2.37,5.824,5.824,0,0,0,.1-3.294A4.734,4.734,0,0,0,877.7,511.5a6.057,6.057,0,0,1-1.272-1.15c-.383-.4-.837-1.534-1.551-2.6a3.709,3.709,0,0,1-.924-3.172c.192-1.638.959-3.137,1.15-4.444s-1.011-2-1.516-2.335-.209-.715-.575-.924-.749.139-1.325.366a6,6,0,0,0-2.231.976c-1.1.8-1.289,2.735-1.55,3.014s-.767.035-.993-.558a3.858,3.858,0,0,1,.244-2.736,3.768,3.768,0,0,0,.139-2.7c-.192-1.045-.61-.854-.976-.349A2.73,2.73,0,0,1,864.3,495.9a4.456,4.456,0,0,0-3.067,1.673c-.854,1.1-.854,2.179-1.1,2.179a.273.273,0,0,1-.154-.078.927.927,0,0,1-.37.2c-.2.026-.235.166-.148.244s.436.235.453.584,1.647,1.246,1.647,1.246a6.527,6.527,0,0,1,2.51.7c.488.488,2.58,2.022,2.58,2.022l2.858,4.121,1,1.317,3.184,5.206.433.793-2.145,5.246a1.683,1.683,0,0,0-.426,1.606,2.473,2.473,0,0,0,1.906,1.836,6.164,6.164,0,0,0,1.743.137c.093.026,1.093,0,1.093,0l.976-.16.976-.07s1.164-.07,1.371-.046a3.249,3.249,0,0,0,.674-.07S881.574,523.606,881.644,523.559Z" transform="translate(-789.51 -454.258)"/><path class="a" d="M14.6,940.918c-.343-2.551-.911-1.261-1.609-1.878s-3.486-.916-4.421-2.031a1.562,1.562,0,0,1,0-2.091c.041-.233.238-8.459.331-9.947s.73-5.531.73-5.531l-1.846-4.416-3.114-.743L3.858,916.9a6.923,6.923,0,0,1,.7,3.651,3.512,3.512,0,0,1-1.7,3.137c-.488.464-2.9,3.951-2.812,7.042a10.488,10.488,0,0,0,1.161,5.182c.416.767.164.953,0,2.556s.466,2.882,1.837,4.416a7.293,7.293,0,0,0,5.229,2.626,3.98,3.98,0,0,0,2.812-1.325s2,.358,3.7.605C16.245,943,14.911,943.2,14.6,940.918Z" transform="translate(-0.039 -839.912)"/><path class="b" d="M796.214,81.713c.017.209.331,1.272.331,1.272s3.573,5.3,3.667,5.733a2.185,2.185,0,0,1-.006.856s-.627,6.327-.976,6.868a12.224,12.224,0,0,1-.959,1.22s-.488,6.222-.488,6.379.976,2.022,1.133,2.388,2.7,1.237,2.7,1.237.767-.488.889-.959a2.269,2.269,0,0,0-.087-1.063,1.408,1.408,0,0,0-.057-.208c-.118.359-.179.591-.292.591-.244,0-.941-.976-1.272-2.6s.993-4.026,1.534-4.636,2.667-2.109,3.486-2.876a5.976,5.976,0,0,0,1.534-4.113,6.54,6.54,0,0,0-1.133-3.9c-.61-.784-2.527-3.137-3.259-4.322a17.276,17.276,0,0,0-2.719-2.98c-.872-.872-1.238-3.712-.018-6.153s2.318-4.322,2.736-6.344a7.422,7.422,0,0,0,.215-2.166c-.22-.149-.433.163-.546.434a3.518,3.518,0,0,0-.2.93,4.636,4.636,0,0,1-.372,1,9.507,9.507,0,0,1-1.128,1.488s-.743,1.383-.8,1.47-.575.837-.767,1.15-1.081,1.359-1.185,1.569-1.551,2.126-1.551,2.126S796.2,81.5,796.214,81.713Z" transform="translate(-731.445 -60.535)"/><path class="c" d="M21.192,411.364a20.944,20.944,0,0,0,3.114,1.673l1.6,1.952,1.813.314.979-2.388c-.809.151-1.768.378-1.768.378a17.469,17.469,0,0,1,1.174-3.23,2.14,2.14,0,0,0-.477-2.347,2.41,2.41,0,0,0-2-.883,5.357,5.357,0,0,0-2.2.442c-.756.4-1.766.965-1.766.965a1.743,1.743,0,0,1-.261-1.15,8.647,8.647,0,0,1,1.644-2.766,10.3,10.3,0,0,0,1.586-4.1c.087-.924-.268-2.591-.825-2.527s-.111.512-1.784,2-2.835,1.209-4.276,1.952a14.29,14.29,0,0,0-4.718,5.019c-.906,1.813-1.022,4.206-2.115,5.438s-2.115,1.976-2.975,2.882-1.976,2.487-3.067,3.509-1.51,4.021-1.185,5.88,1.022,2.673,1.069,3.881S3.88,430,3.113,430.351,2,431.466,1.347,432.28a6.271,6.271,0,0,0-1.327,2.928,4.35,4.35,0,0,0,.908,2.534c.488.651,1.488,2.626,2.254,3.6a6.529,6.529,0,0,1,1.348,4.648,3.714,3.714,0,0,1-.752,2.3h0c-.041.048.264.477.659,0s.372-1.174.756-1.778a2.46,2.46,0,0,0,.36-1.871,4.857,4.857,0,0,1-.024-1.964c.116-.569,2.231-8.773,2.231-8.773a11.566,11.566,0,0,0,1.906-2.649c.743-1.488,5.345-12.521,5.345-12.521l.558-2.167,2.7-5.159S21.006,411.038,21.192,411.364Z" transform="translate(-0.009 -365.349)"/><path class="c" d="M622.143,61.366l-3.254-6.414s1.813-4.043,2.637-5.438,1.8-2.57,2.309-3.3c.41-.582,2.779-3.162,4.278-4.762.06-.215.114-.43.159-.647.418-2.022.174-2.51,0-3.033s-.68-1.586-.959-1.586-.488,1.115-.575,1.743-.645.924-.959,1.534-1.9,2.928-2.179,3.7a7.559,7.559,0,0,1-2.179,3.189,49.208,49.208,0,0,1-5.333,4.218,4.689,4.689,0,0,0-2.161,4.88,9.793,9.793,0,0,0,2.231,3.817c.7.906,1.447.995,1.569,1.8a3.337,3.337,0,0,1-.349,2.318,4.1,4.1,0,0,1-2.022,1.115,9.106,9.106,0,0,0-2.649,1.063,14.564,14.564,0,0,0-2.388,1.464c-1.046.941-.279,3.277-.279,3.277.279.418.017,1.168-.906,1.691a10.463,10.463,0,0,1-2.4.843l-.453.372-.151.442-.07.36,1.534.325a11.081,11.081,0,0,0,3.951-.868,9.573,9.573,0,0,0,3.765-2.2c2.138-1.72,1.581-.79,2.51-1.766a3.062,3.062,0,0,0,.976-1.534,17.232,17.232,0,0,0,2.37-3.672A8.375,8.375,0,0,0,622.143,61.366Z" transform="translate(-556.758 -33.246)"/><path class="b" d="M253.266,429.067c-.233-.837-.651-4.416-.651-4.416l-1.162-4.091-2.206.867-.72,1.1a11.59,11.59,0,0,1,.8,1.371,3.252,3.252,0,0,1-.233,2.3c-.337.686-1,1.174-1.522,2.115a1.962,1.962,0,0,0,.4,2.324c.477.581,1.673,1.383,1.987,1.766s.337.825,0,1.034a22.629,22.629,0,0,1-2.986.464c-.825.15-1.859.4-1.859.4-.268.273.041,1.488-.255,1.366s-.349-1.052-.349-1.052l-.61-.6-4.976,4.08-1.41,4.788s2.277,2.324,3.579,2.37a17.944,17.944,0,0,0,5.019-.93c1.394-.464,3.3-2.975,4.927-5.392s1.58-1.813,2.231-3.254S253.5,429.9,253.266,429.067Z" transform="translate(-218.186 -386.351)"/><path class="b" d="M444.736,26.546l-.662,9.552s-.209,3.1-.279,3.625.488,1.847,1.451,3.646,8.589,1.757,8.589,1.757a10.379,10.379,0,0,0,1.115-2.545,3.749,3.749,0,0,0-.558-2.161s-.459-.184-.861-.373a6.2,6.2,0,0,0,.181.757,10.987,10.987,0,0,1-4.409.558,11.468,11.468,0,0,1,.157-3.1,16.551,16.551,0,0,1,1.569-5.037,12.486,12.486,0,0,0,1.063-4.932,9.2,9.2,0,0,0-2.248-5.229,7.894,7.894,0,0,0-3.224-2.579,48.918,48.918,0,0,1-4.967-2.893,9.122,9.122,0,0,1-3.433-4.579,3.24,3.24,0,0,1,.209-1.743,16.048,16.048,0,0,1,1.022-3.242,17.331,17.331,0,0,0,1.069-3.2.723.723,0,0,0-.121-.748c-.318.146-.472.7-.634.981a8.87,8.87,0,0,1-.895,1.383,3.072,3.072,0,0,0-.512.756l-.61,1.037-.5.627a10.849,10.849,0,0,0-.985,1.124c0,.1-.314,3.451-.314,3.451a24.207,24.207,0,0,0,0,3.277,4.984,4.984,0,0,0,1.15,2.2s6.031,5.752,6.484,6.1A7.619,7.619,0,0,1,444.736,26.546Z" transform="translate(-400.43 -3.747)"/><path class="c" d="M252.844,28.585c.046.279,1.673-6.228,1.673-6.228l-.651-2.091s-2.96-12.481-2.922-12.9.807-1.042.992-1.345,1.6-2.091,1.6-2.091.952-1.789,1.139-2.045a6.479,6.479,0,0,1,.555-.622c.021-.069.041-.13.061-.18a.812.812,0,0,0-.662-1.069c-.5-.1-1.2.523-2.057,1.72a37.192,37.192,0,0,1-2.847,2.952,18.7,18.7,0,0,0-2.545,5.6,10.418,10.418,0,0,0-.174,3.951,5.266,5.266,0,0,0,.674,2.289,1.748,1.748,0,0,1,.442.883,3.347,3.347,0,0,0,1.429,1.569,1.888,1.888,0,0,1,.952,1.255c.163.477-.1.662-1.29,1.057a8.568,8.568,0,0,1-3.544.186,7.4,7.4,0,0,1-2.719-.976c-.7-.464-1.627-.464-2.44-1.127a11.813,11.813,0,0,1-2.347-3.219,3.767,3.767,0,0,1,0-2.812c.372-1.115-.209-1.034-.465-.7s-.662.721-1.081,1.29a2.08,2.08,0,0,0-.255,1.592,5.836,5.836,0,0,1-.674,2.057c-.325.708-1,1.824-1.174,2.231a8.705,8.705,0,0,0-.209,3.172,12.82,12.82,0,0,0,.825,3.916,7.2,7.2,0,0,0,2.382,2.638,20.608,20.608,0,0,1,2.557,1.534,17.605,17.605,0,0,1,2,1.882,7.086,7.086,0,0,0,2.126,1.475c.523.22.512.488.918,1.092a17.159,17.159,0,0,1,1.231,2.022,1.494,1.494,0,0,1,.107.438,1.271,1.271,0,0,0,.273-.56,15.312,15.312,0,0,0,.183-1.6l1.332-1.015,3.812-3.765A17.118,17.118,0,0,1,252.844,28.585Z" transform="translate(-215.207 0)"/><path class="d" d="M23.992,142.293a3.549,3.549,0,0,0-1.333-.715c-.74-.183-2,.017-3.05-1.307a7.244,7.244,0,0,1-1.377-4.148,3.219,3.219,0,0,0-1.429-2.614,5.165,5.165,0,0,1-1.9-4.287,8.676,8.676,0,0,1,2-5.3c.557-.7,1.987-1.882,2.388-3.677a6.433,6.433,0,0,0-.662-3.887,11.822,11.822,0,0,0-1.847-3.573c-.976-1.15-1.261-1.575-1.54-1.935s-.464-.442-.558-.651a3.078,3.078,0,0,1-.3-1.65,12.746,12.746,0,0,1,1.627-2.766c.464-.569,1.673-1.313,2.278-1.882a3.194,3.194,0,0,0,.651-3.114,10.882,10.882,0,0,1-.941-3.3c-.139-1.673.07-3.242.813-4.043a41.208,41.208,0,0,0,2.975-3.416c1.278-1.662,1.929-1.453,3.393-3.3a8.126,8.126,0,0,0,1.743-4.091,5.079,5.079,0,0,1,1.488-2.789c1.1-1.162,1.22-1.732,2.51-2.638s1.441-.651,2.975-1.5a6.125,6.125,0,0,0,1.941-1.429,12.562,12.562,0,0,1-.883,2.975,19.06,19.06,0,0,0-1.383,3.01c-.151.674-.046,1.488.233,1.557s.43.139.464.488.534.464,1.394.093,1.244-.79,1.592-.871a5.545,5.545,0,0,1,2.138-.07c.314.2,1.174.767,1.115,1.488s-.662,2.126-.813,2.882a12.59,12.59,0,0,0-.2,1.394,6.738,6.738,0,0,0-2.882,2.533,13.559,13.559,0,0,0-1.3,5.74c-.011,1.2.4,1.917.976,2.045s.895-.1.79-.268.4-.22.616-.732a23.163,23.163,0,0,1,.987-2.986c.651-1.383.906-2.185,2.1-2.975a27.253,27.253,0,0,1,3.742-2.173c1.313-.592,1.859-1.069,2.057-2.243a1.853,1.853,0,0,0-.639-2,6.737,6.737,0,0,0-1.336-1.278c-.477-.279-1-.8-.93-1.162a6.108,6.108,0,0,1,1.185-1.72,5.974,5.974,0,0,0,.674-3.207c-.069-1.15-.627-1.418-.906-1.917a7.12,7.12,0,0,0-1.545-2.44c-.987-.906-1.964-.976-2.5-1.592a18.571,18.571,0,0,0-2.057-2.243,6.015,6.015,0,0,0-1.8-1.034,1.99,1.99,0,0,1-1.244-1.057,11.45,11.45,0,0,1-1.255-2.15,13.361,13.361,0,0,1-.36-5.311,10.122,10.122,0,0,1,1.534-2.568A19.194,19.194,0,0,0,37.044,58.9c.627.674,2,.965,2.614,1.406a9.4,9.4,0,0,0,4.23,1.754c2.1.279,6.3-.1,6.4-2.068a3.955,3.955,0,0,0-1.383-3.346,11.2,11.2,0,0,1-2.091-2.731,9.193,9.193,0,0,1-.081-4.962,12.411,12.411,0,0,1,2.243-4.579c.883-.953,1.778-1.336,2.126-1.952,0,0-1.1,2.731-1.51,4.056s.418,3.939,1.51,5.415a7.363,7.363,0,0,0,2.986,2.6,17.357,17.357,0,0,1,1.766.918c.581.255,1.557,1.162,2.568,1.638a6.756,6.756,0,0,1,2.08,1.266,10.245,10.245,0,0,1,1.789,2.44c.523,1.115,1.115,1.882.941,3.289a15.845,15.845,0,0,1-3.155,7.065c-2.283,3.172-1.412,4.915-.366,6.187a3.213,3.213,0,0,0,3.44,1.261l-.024.244a10.8,10.8,0,0,0,1.778-.116,3.045,3.045,0,0,0,2.231-1.325c.337-.756.721-1.209.418-2a1.868,1.868,0,0,1,.279-2.08,18.978,18.978,0,0,1,3.137-1.627,5.769,5.769,0,0,1,1.569-.581,2.774,2.774,0,0,0,2.15-1.569,4.218,4.218,0,0,0,.674-2.429,3.765,3.765,0,0,0-.6-1.418c-.244-.43-.29-.442-.6-.593a3.222,3.222,0,0,1-.965-1.15,9.683,9.683,0,0,1-1.266-2.068c-.36-.976-.686-1.824-.453-2.068a3.332,3.332,0,0,0,.512-1.011A11.963,11.963,0,0,1,73.925,56.8c.6-.477,2.335-2.1,3.091-2.719s1.638-1.545,2.208-2.08a8.119,8.119,0,0,0,1.429-1.894,4.954,4.954,0,0,1,.825-1.325,11.189,11.189,0,0,0,1.081-1.824c.186-.349.512-1.72,1.057-2.01A7.558,7.558,0,0,1,83,48.113c-.708,1.592-1.627,3.568-2.289,4.823a5.673,5.673,0,0,0-.8,4.392c.383,2.22,1.127,2.9,1.685,3.346a6.638,6.638,0,0,1,2.15,2.522c.756,1.5,1.824,2.87,2.15,4.091a4.349,4.349,0,0,1,0,2.591,10.433,10.433,0,0,1-1.557,2.649,12.75,12.75,0,0,0-2.568,3.718,13.668,13.668,0,0,0-.976,5.1,4.489,4.489,0,0,0,1.732,3.66c.6.383.686.22,1.115.314s.918.07,1.231-.756A5.746,5.746,0,0,1,87.021,82c.8-.372,2.464-.383,3.091-1.313a3.134,3.134,0,0,1-.407,2.2c-.674,1.139-.627,3.289.534,4.078a1.492,1.492,0,0,0,2.464-.895c.244-1.081.349-2.429,1.464-2.777a11.082,11.082,0,0,0,1.778-.512,2.559,2.559,0,0,0,1.069.987c.7.314.558,1.743-.174,3.137s-.813,4.335.07,5.577,1.58,2.986,2.394,3.8,1.7,1.092,2.243,2.15a4.362,4.362,0,0,1,.081,3.451,7.773,7.773,0,0,1-1.766,2.487,18.466,18.466,0,0,0-2.08,2.382c-.407.512-1.325,1.092-.848,1.778s1.7,0,2.359-.2a7.758,7.758,0,0,1,3.463-.29c1.5.244,1.813.372,1.906.686a4.19,4.19,0,0,1-.965,2.243,4.579,4.579,0,0,0-.627.778l.558-.1s-1.952,1.906-3.242,2.917-2.986,3.753-3.962,8.842-1.464,6.9-3.189,8.332-42.86-2.405-42.86-2.405l-18.824,8.3Z" transform="translate(-13.177 -38.969)"/><path class="e" d="M142.464,734.8c-.035.081-1.081,1.546-1.627.43,0,0-.871.431-1.278-.651a9.743,9.743,0,0,1-.581-3.392c.058-.767,1.244-2.44,1.871-3.37a14.677,14.677,0,0,0,1.244-4.428c.128-.941.627-4.346.7-5.345a4.489,4.489,0,0,1,.895-2.452c.464-.581.953-1.174,1.475-1.847a8.559,8.559,0,0,1,1.1-1.162,2.178,2.178,0,0,1-.186,1.464c-.383.884-.407.953-.4,1.337a2.281,2.281,0,0,1-.4,1.011,4.889,4.889,0,0,0,.035,2.65c.36.964,1.611.794,2.475,2.01a4.1,4.1,0,0,1,.534,2.858l-3.974,9.434-.976,1.1Z" transform="translate(-127.661 -654.619)"/><path class="e" d="M433.79,299.48a3.817,3.817,0,0,1,1.557-2.487c1.371-.93,3.136-1.789,3.485-2.138s.233-.442.233-.442-.221-.1-.076-.529a12.653,12.653,0,0,0,.593-1.58,13.047,13.047,0,0,1,.383-1.366,4.956,4.956,0,0,0-.139-2.126c-.209-.529-.784-.952-2.411-2.091s-3.254-4.834-2.254-7.088a12.765,12.765,0,0,0,1.255-4c.349-1.7.333-2.207.492-2.277s.252-.442.368-.837.883-3.462,1.139-4.253.418-1.022.116-1.766-.6-1.859-.325-2.068.558-.093.93.906a6.848,6.848,0,0,1,.418,3.323,19.862,19.862,0,0,1-.442,3.753,8.433,8.433,0,0,0-.825,3.742,5.908,5.908,0,0,0,1.739,3.463c.713.593,2.015,1.092,2.84,2.208a5.055,5.055,0,0,1,1.276,3.615,7,7,0,0,1-1.963,4.218,1.459,1.459,0,0,0-.593,1.231,3.012,3.012,0,0,1-.535,1.3,1.9,1.9,0,0,0-.36,1.139c-.035.5-.035,1.057-.035,1.057l1.081-.279-.3-.29a6.276,6.276,0,0,0,2.429-.383,3.414,3.414,0,0,0,1.754-2.231.989.989,0,0,1,1.336-.8,5.291,5.291,0,0,1,2.44,1.917c.43.674.883,2.208,1.406,3.161s1.615.933,1.813.164a9.977,9.977,0,0,0,.2-4.115,3.446,3.446,0,0,1-.163-2.649c.36-.825.593-1.046.871-.952s.244.558.267.976a7.551,7.551,0,0,0,.674,2.486c.384.627,1.963,1.174,2.638,1.778a5.21,5.21,0,0,1,1.557,2.405c.128.743-.081,1.6.906,2.37a3.679,3.679,0,0,0,2.5,1,10.092,10.092,0,0,0,2.115-.383.994.994,0,0,1,.314-.616,1.124,1.124,0,0,0,.255-1.569,20.912,20.912,0,0,1-3.137-4.8c-.86-2.068-.93-3.277-.349-6.158s1.766-5.438,2.44-6.089,2.719-2.324,3.021-4.416a17.1,17.1,0,0,0,.137-3.274.616.616,0,0,1,.6-.65h0a.618.618,0,0,1,.627.513,8.273,8.273,0,0,1,.128,1.833,9.975,9.975,0,0,1-1.42,4.9,26.219,26.219,0,0,1-2.766,3.509,5.91,5.91,0,0,0-.651,1.72,10.605,10.605,0,0,0-.116,3.858c.209,1.394,3.021,4.253,4.067,5.206s3,1.348,4.531,2.975a5.456,5.456,0,0,1,.581,6c-.906,1.44-1.51,1.255-1.51,1.255a4.855,4.855,0,0,1-3.788,2.37,4.185,4.185,0,0,0,3.137,1.255c2.208.07,2.379-1.078,3.407-.32s.479,2.37.253,3.015.453,3.12.453,3.12.837-3.189,3.189-3.712,3.085-.819,3.747-1.6,1.813-1.185,1.935-3a5.885,5.885,0,0,0-.749-3.538,7.506,7.506,0,0,1-.468-.844.351.351,0,0,1,.079-.409h0a.352.352,0,0,1,.509.034,7.94,7.94,0,0,1,1.8,3.519,5.7,5.7,0,0,1-1.551,5.037c-1.412,1.481-1.516,1.969-2.963,3.381a6.889,6.889,0,0,0-1.778,2.45,13.044,13.044,0,0,1-.035,2.589,1.258,1.258,0,0,1-.854.871,2.175,2.175,0,0,1,.157,1.778c-.331,1.046-.471,1.2-.122,1.8s2.51,3.433,2.754,6.222a16.1,16.1,0,0,1-.523,5.891,3.093,3.093,0,0,1-1.046,1.29l-2.777-6.466-3.207-9.11-1.906-3.346-6.554-8.134-3.207-2.886L455.8,301.5l-7.483-1s-7.948-1.613-8.506-1.351-4.834.865-4.834.865Z" transform="translate(-398.501 -242.844)"/><path class="f" d="M193.46,687.9c-10.643-17.708-25.8-17.576-29.166-17.505-7.437,0-11.068,2.771-13.578,4.235a38.426,38.426,0,0,0-7.826,6.345,47.706,47.706,0,0,0-9.691,17.708c-3.555,11.155-3.416,19.01-.889,32.768s15.321,22.613,16.111,23.124,2.091,1.255,3.277,2.091a22.5,22.5,0,0,0,10.9,2.719c11.946,0,24.355-6.74,31.536-19.843S204.011,703.42,193.46,687.9Z" transform="translate(-119.848 -615.852)"/><path class="g" d="M216.754,765.073a56.156,56.156,0,0,1-8.262,15.707,43.478,43.478,0,0,1-3.248,3.489,27.568,27.568,0,0,1-14.05,7.207,29.336,29.336,0,0,1-9.76-.276,40.509,40.509,0,0,1-5.389-1.8c-.717-.3-1.637-.65-2.035-.772a9.382,9.382,0,0,1-1.278-.5,37.1,37.1,0,0,1-6.219-4.636,26.971,26.971,0,0,1-3.158-3.6,28.362,28.362,0,0,1-2.833-4.213,54.544,54.544,0,0,1-5.08-10.916,40.766,40.766,0,0,1-1.473-5.816,36.992,36.992,0,0,1-.822-8.7c0-1.432.033-3.01.073-3.5a40.132,40.132,0,0,1,1.563-9.509,43.4,43.4,0,0,1,3.476-9.1,26.65,26.65,0,0,1,2.914-4.449c.4-.472,1.115-1.334,1.579-1.911a37.262,37.262,0,0,1,6.715-6.686,19.487,19.487,0,0,1,4.925-2.977c.334-.106,1.254-.472,2.035-.805a30.768,30.768,0,0,1,7.489-2.139c.2-.025.7-.1,1.1-.163s.863-.13,1.018-.147a27.973,27.973,0,0,1,3.386.024,24.418,24.418,0,0,1,9.109,2.644,30.036,30.036,0,0,1,7.757,5.434,36.586,36.586,0,0,1,8.295,12.006,48.866,48.866,0,0,1,3.761,12.737,52.748,52.748,0,0,1,.163,15.5A55.931,55.931,0,0,1,216.754,765.073Z" transform="translate(-140.685 -651.163)"/><path class="f" d="M500.264,751.959a2.717,2.717,0,0,1-.3.073,1.849,1.849,0,0,0-.969.9c-.211.464-.2,1.074.09,2.741.13.789.277,1.993.325,2.684s.106,1.448.13,1.692l.049.447h-1.5c-1.718.008-2.027.09-2.238.594a.79.79,0,0,0,.244.968c.342.325.627.415,1.579.471.439.024.985.09,1.2.13s.488.1.578.114l.179.041-.041,4.246c-.032,3.416-.016,4.563.081,5.84.146,1.732.228,2.115.472,2.115s.309-.293.358-1.521c.033-.618.106-1.676.163-2.342s.155-2.245.2-3.5.122-2.627.163-3.05.081-.985.081-1.237a1.269,1.269,0,0,1,.065-.5c.041-.024.676-.065,1.424-.1,1.562-.065,1.775-.139,1.937-.667a.691.691,0,0,0-.049-.618c-.2-.415-.5-.545-1.5-.634-.472-.041-1.058-.1-1.3-.122l-.439-.041.049-1.35a21.488,21.488,0,0,1,.513-4.059c.366-1.757.2-2.652-.6-3.091A1.742,1.742,0,0,0,500.264,751.959Z" transform="translate(-455.445 -690.782)"/><path class="f" d="M262.05,860.309c-2.979.366-5.82,3.058-7.326,6.938a30.977,30.977,0,0,0-2.011,10.127,26.244,26.244,0,0,0,1.84,11.607,10.191,10.191,0,0,0,1.457,2.457c2.548,3.376,6.024,4.189,9.443,2.212a13.305,13.305,0,0,0,3.354-3.367,23.283,23.283,0,0,0,3.394-9.574,26.209,26.209,0,0,0,.1-6.686c-.065-.374-.154-1.041-.211-1.488a20.687,20.687,0,0,0-3.02-8.459,14.04,14.04,0,0,0-1.123-1.358A6.994,6.994,0,0,0,262.05,860.309Zm1.929,2.521c1.53.472,3.207,2.213,4.306,4.466a20.745,20.745,0,0,1,1.645,5.23,32.986,32.986,0,0,1,.171,7.085,27.985,27.985,0,0,1-1.4,6.214,19.177,19.177,0,0,1-1.962,3.6c-2.287,3.034-5.015,3.579-7.538,1.5a10.567,10.567,0,0,1-2.19-2.684,14.283,14.283,0,0,1-1.734-3.864,18.879,18.879,0,0,1-.765-3.18,24.308,24.308,0,0,1-.163-6.467,23.423,23.423,0,0,1,1.546-5.759c.977-2.245,2.906-4.783,4.249-5.572A4.41,4.41,0,0,1,263.979,862.83Z" transform="translate(-232.111 -790.29)"/><path class="f" d="M312.457,997.151a4.569,4.569,0,0,0-2.588,1.7c-2.312,3.083-1.962,8.492.725,11.119,2.507,2.449,5.983,1.554,7.188-1.846,1.506-4.238-.244-9.712-3.459-10.818A4.008,4.008,0,0,0,312.457,997.151Z" transform="translate(-283.251 -915.996)"/><path class="f" d="M613.6,868.94a6.94,6.94,0,0,0-3.622,2.049c-2.344,2.367-3.867,6.32-4.322,11.258a45.936,45.936,0,0,0,.163,6.93c.725,5.311,2.458,9.679,4.949,12.5,1.751,1.977,3.565,2.936,5.56,2.936a5.971,5.971,0,0,0,4.648-2.115,10.459,10.459,0,0,0,1.921-2.912,20.652,20.652,0,0,0,2.263-8.321,44.9,44.9,0,0,0-.008-6.613,41.5,41.5,0,0,0-.888-5.165,17.606,17.606,0,0,0-4.672-8.5A6.663,6.663,0,0,0,613.6,868.94Zm1.905,2.619a6.1,6.1,0,0,1,2.531,1.708,10.721,10.721,0,0,1,2.141,2.977,27.783,27.783,0,0,1,3.2,13.909,22.522,22.522,0,0,1-2.344,9.59,5.225,5.225,0,0,1-1.864,2.31,4.535,4.535,0,0,1-2.117.748,5.836,5.836,0,0,1-3.3-1.171,13.141,13.141,0,0,1-3.687-5.206,27.8,27.8,0,0,1-2.173-10.419c-.187-7.166,2.108-13.242,5.462-14.446A3.889,3.889,0,0,1,615.5,871.559Z" transform="translate(-556.322 -798.148)"/><path class="f" d="M668.491,995.864a4.962,4.962,0,0,0-2.792,2.53,19.853,19.853,0,0,0-.985,4.026c-.5,3.7.749,7.622,2.89,9.061,2.653,1.8,5.747.073,6.878-3.823a11.934,11.934,0,0,0-.7-8.614c-1.229-2.261-2.629-3.343-4.29-3.327A3.958,3.958,0,0,0,668.491,995.864Z" transform="translate(-610.541 -914.726)"/><path class="f" d="M267.542,1311.716c-.024.016-.879.073-1.913.114a13.422,13.422,0,0,0-2.76.284c-.733.163-4.249.806-5.413.985-.155.024-1.107.244-2.116.488s-2.417.577-3.134.74a5.972,5.972,0,0,0-2.564.9,1.687,1.687,0,0,0-.212.659,1.954,1.954,0,0,1-.114.545,10.13,10.13,0,0,0-.4,3c-.081,1.781-.049,1.96.325,2.139a.858.858,0,0,1,.358.488,47.336,47.336,0,0,0,4.184,6.523c.2.244.595.724.863,1.065.741.952,1.563,1.911,2.247,2.635.342.365.839.951,1.107,1.309a10.438,10.438,0,0,0,2.507,2.326c.627.464,1.473,1.1,1.872,1.424a35.109,35.109,0,0,0,3.5,2.277,20.582,20.582,0,0,0,3.5,1.326,18.13,18.13,0,0,0,6.756.081,25.233,25.233,0,0,0,2.719-.447,33.206,33.206,0,0,0,3.166-1.383c.1-.065.611-.317,1.14-.553a22.079,22.079,0,0,0,3.842-2.416c.293-.245.879-.708,1.3-1.025a26.184,26.184,0,0,0,3.541-3.628,22.5,22.5,0,0,0,1.685-2.5c.187-.333.546-.9.806-1.261a17.718,17.718,0,0,0,1.058-1.83,50.174,50.174,0,0,0,2.157-5.491,6.725,6.725,0,0,0,.1-2.4c-.2-.358-.8-.293-.8.089,0,.13-.057.114-.464-.122-.26-.146-.708-.423-1-.61a14.821,14.821,0,0,0-1.465-.789c-.512-.252-1.229-.593-1.587-.773s-1.424-.569-2.361-.878-1.986-.667-2.32-.805a72.437,72.437,0,0,0-11.323-2.253C274.167,1311.781,267.655,1311.6,267.542,1311.716Zm4.526,2.522c1.392.016,2.931.073,3.419.122a33.528,33.528,0,0,1,3.541.569,8.123,8.123,0,0,0,.855.17c.317.049,1.229.252,2.035.448s1.848.431,2.32.512a45.524,45.524,0,0,1,9.2,2.733c1.783.781,1.9.895,1.726,1.562a39.1,39.1,0,0,1-2.011,4.652l-.5,1.009-1.742-.016c-.961-.008-1.767-.041-1.791-.057s-.041-.488-.057-1.033c-.057-3.725-.847-5.645-2.849-6.938a6.8,6.8,0,0,0-1.978-.976c-.423-.146-1.026-.365-1.343-.488a3.209,3.209,0,0,0-1.506-.227,2.369,2.369,0,0,0-1.579.3,4.4,4.4,0,0,0-2.3,3.066c-.26.838-.26.854-.366.61a8.478,8.478,0,0,0-1.978-3.172,6.123,6.123,0,0,0-3.492-1.627,7.053,7.053,0,0,0-4.5.788,7.179,7.179,0,0,0-1.645,1.9,9.784,9.784,0,0,0-.423,1.057l-.22.642-.211-.406a5.459,5.459,0,0,0-2.662-2.392l-.692-.334-1.465.024-1.465.024-.578.268a4.9,4.9,0,0,0-2.019,2.05,6.269,6.269,0,0,0-.993,2.586,7.627,7.627,0,0,0-.033,2.212c.049.871.106,1.749.122,1.944l.041.357-.155-.194a19.812,19.812,0,0,1-1.62-2.839c-.342-.691-.863-1.716-1.164-2.278a5.76,5.76,0,0,1-.692-1.659,2.462,2.462,0,0,1,.407-2.22,10.826,10.826,0,0,1,4.078-1.285c.447-.073,1.026-.187,1.278-.252a6.111,6.111,0,0,1,.814-.146c.382-.041.855-.122,2.385-.423a25.2,25.2,0,0,1,4.8-.634,7.716,7.716,0,0,0,1.18-.033c.423-.041,1.343-.057,2.035-.041S270.684,1314.213,272.067,1314.238Zm.22,3.481a4.419,4.419,0,0,1,2,2.172,13.9,13.9,0,0,1,1.074,4.433c.049.627.106,1.31.13,1.521l.049.391h-.317c-.171,0-.774-.057-1.327-.13a24.514,24.514,0,0,0-5.129-.008c-.782.081-1.538.162-1.677.187l-.26.049-.057-1.7a13.933,13.933,0,0,1,.155-3.563,9.261,9.261,0,0,1,1.2-2.522c.48-.74.586-.845.9-.96a3.255,3.255,0,0,1,1.661-.195A2.558,2.558,0,0,1,272.287,1317.719Zm10.892.724c1.751.537,3.37,3.058,3.989,6.255.089.423.2.879.244,1.009s.073.244.049.26a34.218,34.218,0,0,1-6.667.546c-1.994.008-2.108,0-2.222-.147a2.7,2.7,0,0,1-.114-1.139c.008-2.489.317-4.79.709-5.262a6.9,6.9,0,0,1,2.612-1.61A3.1,3.1,0,0,1,283.179,1318.443Zm-22.361.512a3.053,3.053,0,0,1,2.206,1.741,11.071,11.071,0,0,1,1.107,3.758,4.713,4.713,0,0,0,.366,1.448.79.79,0,0,1,.154.6l-.049.236-1.2-.057c-.652-.024-2.336-.057-3.737-.057l-2.539-.008-.2-.236c-.293-.341-.3-1.008-.073-3.148a7.869,7.869,0,0,1,.749-3,2.608,2.608,0,0,1,1.026-1.277A5.334,5.334,0,0,1,260.818,1318.955Zm31.087,8.313c-.073.13-.268.431-.431.676s-.464.732-.676,1.073a15.962,15.962,0,0,1-.928,1.3l-.538.667-.065-.276c-.032-.155-.089-.927-.114-1.717l-.057-1.423.48-.2a7.118,7.118,0,0,1,2.165-.309l.309-.016Zm-4.168,2.278c0,.936.041,1.944.081,2.245a1.257,1.257,0,0,1-.073.911,7.979,7.979,0,0,1-1.962,2.058c-.293.2-.749.545-1.018.756a11.754,11.754,0,0,1-4.054,1.781l-.871.228-.041-.171c-.065-.3-.2-2.514-.285-4.653-.049-1.123-.13-2.546-.2-3.172s-.106-1.147-.1-1.155.2.032.415.073a14.078,14.078,0,0,0,1.832.089,8.257,8.257,0,0,0,2.116-.162,15.028,15.028,0,0,1,1.872-.269c.652-.048,1.384-.122,1.628-.155s.5-.073.554-.082S287.737,1328.252,287.737,1329.546Zm-9.614-1.139a45.094,45.094,0,0,0-.2,5.434c.033.716.081,1.952.114,2.749l.049,1.448-.285.065c-.155.033-.464.106-.692.147s-.684.162-1.017.252a12.072,12.072,0,0,1-7-.081l-.529-.187-.212-1.667c-.122-.919-.431-3.108-.684-4.864s-.447-3.213-.431-3.229c.089-.09,1.058-.122,4.909-.171,2.377-.033,4.607-.081,4.966-.114C278.295,1328.081,278.205,1328.057,278.124,1328.407Zm-15.7.366c.512.057,1.465.106,2.116.106h1.188l.309,2.237c.171,1.228.39,2.781.5,3.457a20.06,20.06,0,0,1,.333,2.944,2.555,2.555,0,0,1-.676-.3c-.35-.2-.944-.513-1.327-.716s-1.148-.675-1.71-1.057a32.723,32.723,0,0,1-6.219-6.466l-.228-.3h2.385C260.419,1328.676,261.9,1328.724,262.421,1328.773Z" transform="translate(-228.632 -1204.988)"/><circle class="h" cx="1" cy="1" r="1" transform="translate(2.928 90.496)"/><path class="e" d="M105.381,1109.01c-.089-.449-.442-.29-.512-.732a.663.663,0,0,1,1.081-.523,2.766,2.766,0,0,1,.86,1.465,2.846,2.846,0,0,1-.186,1.708c-.186.186-.128.3-.058.58s.671.86.3,1.267-.87-.011-1.114-.453a4.334,4.334,0,0,1-.512-1.72C105.241,1110.1,105.439,1109.3,105.381,1109.01Z" transform="translate(-96.329 -1017.514)"/></g></svg>