<svg xmlns="http://www.w3.org/2000/svg" width="87.737" height="89.118" viewBox="0 0 87.737 89.118"><defs><style>.a{fill:#ffd33f;}.b{fill:#ea3836;}.c{fill:#ffac3e;}.d{fill:#383856;}.e{fill:#91cece;}.f{fill:#874d1b;}.g{fill:#d62121;}.h{fill:#83b2b7;}.i{fill:#202033;}.j{fill:#6b3713;}</style></defs><g transform="translate(0)"><path class="a" d="M30.466,247.463a22.446,22.446,0,0,0-2.426.132C18.666,248.619,9.715,257.674,8.674,267.2A22.2,22.2,0,0,0,27.956,291.88a21.654,21.654,0,0,0,14.053-3.193,15.674,15.674,0,0,1,7.075-2.525q.912-.082,1.851-.082.89,0,1.766.064a15.7,15.7,0,0,1,7.182,2.549,21.734,21.734,0,0,0,30.181-7.259,22.556,22.556,0,0,0,3.124-14.242c-1.04-9.519-9.992-18.573-19.367-19.6a22.292,22.292,0,0,0-2.418-.132Z" transform="translate(-7.067 -204.39)"/><ellipse class="b" cx="4.386" cy="4.456" rx="4.386" ry="4.456" transform="translate(49.711 60.89)"/><path class="c" d="M126.984,302.656c-17.6,20.035-57.23,27.491-72.709,29.705a21.579,21.579,0,0,0,25.637,1.9,15.672,15.672,0,0,1,7.075-2.525c.611-.049,1.231-.074,1.855-.074q.89,0,1.766.064a15.7,15.7,0,0,1,7.182,2.549,21.734,21.734,0,0,0,30.181-7.259,22.555,22.555,0,0,0,3.124-14.242A21.308,21.308,0,0,0,126.984,302.656Z" transform="translate(-44.974 -249.975)"/><path class="d" d="M84.135,315.719h5.848v7.426h7.31v5.941h-7.31v7.426H84.135v-7.426h-7.31v-5.941h7.31Z" transform="translate(-63.66 -260.764)"/><g transform="translate(59.945 51.979)"><ellipse class="e" cx="4.386" cy="4.456" rx="4.386" ry="4.456"/><ellipse class="e" cx="4.386" cy="4.456" rx="4.386" ry="4.456" transform="translate(0 17.823)"/></g><ellipse class="b" cx="4.386" cy="4.456" rx="4.386" ry="4.456" transform="translate(70.18 60.89)"/><path class="f" d="M238.934,219.275v-5.941h5.848v5.941" transform="translate(-197.99 -176.202)"/><path class="g" d="M299.937,353.653a4.446,4.446,0,0,1-3.734,6.764,4.288,4.288,0,0,1-2.272-.662,4.337,4.337,0,0,0,6.006,1.506,4.485,4.485,0,0,0,1.483-6.1A4.406,4.406,0,0,0,299.937,353.653Z" transform="translate(-243.562 -292.094)"/><path class="h" d="M359.662,302.46a4.446,4.446,0,0,1-3.734,6.764,4.287,4.287,0,0,1-2.272-.662,4.337,4.337,0,0,0,6.006,1.506,4.485,4.485,0,0,0,1.482-6.1A4.408,4.408,0,0,0,359.662,302.46Z" transform="translate(-293.053 -249.813)"/><path class="g" d="M419.386,353.653a4.447,4.447,0,0,1-3.734,6.764,4.288,4.288,0,0,1-2.272-.662,4.337,4.337,0,0,0,6.006,1.506,4.485,4.485,0,0,0,1.482-6.1A4.4,4.4,0,0,0,419.386,353.653Z" transform="translate(-342.542 -292.094)"/><path class="h" d="M359.662,404.845a4.446,4.446,0,0,1-3.734,6.764,4.286,4.286,0,0,1-2.272-.662,4.337,4.337,0,0,0,6.006,1.506,4.485,4.485,0,0,0,1.482-6.1A4.406,4.406,0,0,0,359.662,404.845Z" transform="translate(-293.053 -334.375)"/><path class="i" d="M76.825,362.87v1.451h7.31v7.426h5.848v-7.426h7.31V358.38h-2.44C89.079,362.47,80.273,362.88,76.825,362.87Z" transform="translate(-63.66 -295.998)"/><path class="j" d="M238.934,223.908v.405h5.848v-4.879A11.079,11.079,0,0,1,238.934,223.908Z" transform="translate(-197.99 -181.24)"/><path d="M90.224,314.613H84.376v-5.941a1.474,1.474,0,0,0-1.462-1.485H77.066a1.474,1.474,0,0,0-1.462,1.485v5.941H69.755a1.474,1.474,0,0,0-1.462,1.485v5.941a1.474,1.474,0,0,0,1.462,1.485H75.6v5.941a1.474,1.474,0,0,0,1.462,1.485h5.848a1.474,1.474,0,0,0,1.462-1.485v-5.941h5.848a1.474,1.474,0,0,0,1.462-1.485V316.1A1.474,1.474,0,0,0,90.224,314.613Zm-1.462,5.941H82.914a1.474,1.474,0,0,0-1.462,1.485v5.941H78.528V322.04a1.474,1.474,0,0,0-1.462-1.485H71.217v-2.971h5.848a1.474,1.474,0,0,0,1.462-1.485v-5.941h2.924V316.1a1.474,1.474,0,0,0,1.462,1.485h5.848v2.971Z" transform="translate(-56.59 -253.717)"/><path d="M347.167,302.005a5.942,5.942,0,1,0-5.848-5.941A5.9,5.9,0,0,0,347.167,302.005Zm0-8.912a2.971,2.971,0,1,1-2.924,2.971A2.947,2.947,0,0,1,347.167,293.094Z" transform="translate(-282.83 -239.624)"/><path d="M347.167,392.508a5.942,5.942,0,1,0,5.848,5.941A5.9,5.9,0,0,0,347.167,392.508Zm0,8.912a2.971,2.971,0,1,1,2.924-2.971A2.947,2.947,0,0,1,347.167,401.42Z" transform="translate(-282.83 -324.185)"/><path d="M287.443,341.315a5.942,5.942,0,1,0,5.848,5.941A5.9,5.9,0,0,0,287.443,341.315Zm0,8.912a2.971,2.971,0,1,1,2.924-2.971A2.947,2.947,0,0,1,287.443,350.227Z" transform="translate(-233.34 -281.904)"/><path d="M406.891,341.315a5.942,5.942,0,1,0,5.848,5.941A5.9,5.9,0,0,0,406.891,341.315Zm0,8.912a2.971,2.971,0,1,1,2.924-2.971A2.947,2.947,0,0,1,406.891,350.227Z" transform="translate(-332.319 -281.904)"/><path d="M66.916,41.769a23.747,23.747,0,0,0-2.579-.148H48.254V35.68H45.33V32.709a5.9,5.9,0,0,0-5.848-5.941h-7.31a2.971,2.971,0,0,1,0-5.941H55.565a5.942,5.942,0,0,0,0-11.882h-7.31A2.947,2.947,0,0,1,45.33,5.974V.033H42.406V5.974a5.9,5.9,0,0,0,5.848,5.941h7.31a2.971,2.971,0,0,1,0,5.941H32.172a5.942,5.942,0,0,0,0,11.882h7.31a2.947,2.947,0,0,1,2.924,2.971v2.971H39.482V41.62H23.4a23.477,23.477,0,0,0-2.582.148C10.729,42.868,1.272,52.444.154,62.679A23.681,23.681,0,0,0,20.735,88.991a23.1,23.1,0,0,0,14.976-3.406,14.184,14.184,0,0,1,6.417-2.3,22.2,22.2,0,0,1,3.4-.012A14.285,14.285,0,0,1,52.045,85.6a23.182,23.182,0,0,0,32.2-7.722,24.076,24.076,0,0,0,3.341-15.2C86.463,52.437,77,42.861,66.916,41.769ZM42.406,38.65H45.33v2.971H42.406Zm37.188,40.6a20.228,20.228,0,0,1-26.007,3.825,17.07,17.07,0,0,0-7.85-2.767q-.926-.069-1.869-.068c-.665,0-1.316.028-1.971.08a17.029,17.029,0,0,0-7.732,2.742A20.286,20.286,0,0,1,5.989,76.318,21.057,21.057,0,0,1,3.06,63.009c.962-8.8,9.4-17.339,18.071-18.285a20.661,20.661,0,0,1,2.268-.132H64.337a21.043,21.043,0,0,1,2.268.123C75.27,45.661,83.711,54.2,84.676,63A20.856,20.856,0,0,1,79.594,79.249Z" transform="translate(0 -0.033)"/></g></svg>