<svg xmlns="http://www.w3.org/2000/svg" width="80.602" height="89.021" viewBox="0 0 80.602 89.021"><defs><style>.a{fill:#fe9738;}.b{fill:#fe860a;}.c{fill:#fea95c;}.d{fill:#6cf5c2;}</style></defs><g transform="translate(0 0)"><path class="a" d="M92.018,51.323h-50.3l-13.43-7.8A.87.87,0,0,1,27.95,42.4L39.767,18.178a1.808,1.808,0,0,1,.649-.73L54.967,8.118a3.858,3.858,0,0,1,3.957-.139c5.85,3.245,11.2,3.287,16.074.226a3.853,3.853,0,0,1,4.151.047l14.179,9.195a1.81,1.81,0,0,1,.641.725L105.787,42.4a.87.87,0,0,1-.339,1.132Z" transform="translate(-26.568 -6.185)"/><path class="b" d="M52.5,20.048,40.415,27.8a1.811,1.811,0,0,0-.649.73L27.95,52.743a.87.87,0,0,0,.339,1.132l13.43,7.8H52.5V20.048Z" transform="translate(-26.568 -16.533)"/><path class="c" d="M139.333,8.253a3.853,3.853,0,0,0-4.151-.047c-4.871,3.061-10.224,3.019-16.074-.226a3.858,3.858,0,0,0-3.957.139L100.6,17.447l1.424,18.323V93.1a.782.782,0,0,0,.776.788h48.507a.782.782,0,0,0,.776-.788V35.77l1.43-18.322Z" transform="translate(-86.753 -6.185)"/><path class="a" d="M140.005,107.868A30.848,30.848,0,0,1,109.4,76.78V49.747l-1.071-13.781L100.6,40.923l1.424,18.323v58.121h50.058v-9.5Z" transform="translate(-86.753 -29.66)"/><path class="b" d="M196.721,7.5a3.838,3.838,0,0,1,1.921.48c5.849,3.245,11.2,3.287,16.073.226a3.781,3.781,0,0,1,1.707-.57l.022.254a9.936,9.936,0,0,1-9.858,9.674,9.756,9.756,0,0,1-6.9-2.863,10.072,10.072,0,0,1-2.958-6.936Z" transform="translate(-166.285 -6.181)"/><path class="d" d="M197.269,8.252l2.1,1.362a14.494,14.494,0,0,1-28.75.084l2.468-1.581a3.9,3.9,0,0,1,2.036-.619l0,.266a10.071,10.071,0,0,0,2.958,6.936,9.756,9.756,0,0,0,6.9,2.863,9.936,9.936,0,0,0,9.858-9.674l-.022-.254a3.884,3.884,0,0,1,2.444.617Z" transform="translate(-144.689 -6.183)"/><path d="M100.742,35.626,88.924,11.4a3.118,3.118,0,0,0-1.1-1.25L73.64.959A5.153,5.153,0,0,0,68.112.9C63.6,3.738,58.769,3.652,53.34.64a5.135,5.135,0,0,0-5.268.18L45.626,2.389l-.008.005L33.52,10.15A3.116,3.116,0,0,0,32.4,11.408L20.586,35.626a2.2,2.2,0,0,0,.857,2.857l12.9,7.487V86.918a2.089,2.089,0,0,0,2.07,2.1H84.918a2.089,2.089,0,0,0,2.07-2.1V72.881a1.295,1.295,0,1,0-2.589,0V86.391H36.929V29.585a1.295,1.295,0,1,0-2.589,0V42.941l-11.249-6.53,11.63-23.835a.5.5,0,0,1,.179-.2L45.417,5.632a16.15,16.15,0,0,0,3.074,5.973,1.28,1.28,0,0,0,1.823.172,1.329,1.329,0,0,0,.169-1.852,13.5,13.5,0,0,1-2.759-5.772l1.729-1.109c.054-.035.109-.067.164-.1a11.326,11.326,0,0,0,3.238,6.508A11.034,11.034,0,0,0,68.427,9.5a11.333,11.333,0,0,0,3.291-6.589,2.619,2.619,0,0,1,.53.263l1.373.89A13.343,13.343,0,0,1,60.664,14.8a13.041,13.041,0,0,1-6.557-1.774,1.283,1.283,0,0,0-1.767.486,1.326,1.326,0,0,0,.479,1.795,15.6,15.6,0,0,0,7.845,2.123A15.942,15.942,0,0,0,75.929,5.563l10.5,6.808a.5.5,0,0,1,.177.2l11.632,23.84-11.249,6.53V29.584a1.295,1.295,0,1,0-2.589,0V67.621a1.295,1.295,0,1,0,2.589,0V45.97l12.9-7.487a2.2,2.2,0,0,0,.857-2.857ZM60.664,10.064a8.453,8.453,0,0,1-6-2.487,8.693,8.693,0,0,1-2.413-4.546c5.984,3.269,11.612,3.4,16.737.4A8.557,8.557,0,0,1,60.664,10.064Z" transform="translate(-20.363 0)"/></g></svg>